/* XPM */
static const char * joecalc64x64_xpm[] = {
"64 64 271 2",
"  	c None",
". 	c #0B0E10",
"+ 	c #0C0E0F",
"@ 	c #0E1213",
"# 	c #0A0E0E",
"$ 	c #344144",
"% 	c #495A5E",
"& 	c #53676C",
"* 	c #090B0C",
"= 	c #1B2224",
"- 	c #4E6166",
"; 	c #191E20",
"> 	c #516569",
", 	c #506469",
"' 	c #0A0C0E",
") 	c #4D6065",
"! 	c #2D3436",
"~ 	c #222525",
"{ 	c #2E3232",
"] 	c #303334",
"^ 	c #344042",
"/ 	c #1F2223",
"( 	c #9EA4A5",
"_ 	c #DBE2E3",
": 	c #0B0C0E",
"< 	c #47585D",
"[ 	c #2C3335",
"} 	c #9CA1A1",
"| 	c #0A0D0D",
"1 	c #282C2D",
"2 	c #B6BCBD",
"3 	c #7B7F7F",
"4 	c #9BA0A0",
"5 	c #5D6060",
"6 	c #818586",
"7 	c #CED5D6",
"8 	c #A2A8A8",
"9 	c #5C5F5F",
"0 	c #747878",
"a 	c #C2C8C9",
"b 	c #8C9091",
"c 	c #AEB4B5",
"d 	c #A9AFAF",
"e 	c #6D7171",
"f 	c #999E9E",
"g 	c #0D1112",
"h 	c #4F6267",
"i 	c #353839",
"j 	c #A8AEAE",
"k 	c #828686",
"l 	c #595C5D",
"m 	c #9A9F9F",
"n 	c #C6CDCE",
"o 	c #909596",
"p 	c #BDC3C4",
"q 	c #CBD1D2",
"r 	c #A7ACAD",
"s 	c #464848",
"t 	c #343535",
"u 	c #777A7B",
"v 	c #898D8E",
"w 	c #B9BFBF",
"x 	c #4E6165",
"y 	c #373A3B",
"z 	c #B2B7B8",
"A 	c #464949",
"B 	c #C0C7C7",
"C 	c #949899",
"D 	c #565959",
"E 	c #D4DBDC",
"F 	c #4E5151",
"G 	c #8F9394",
"H 	c #8A8F8F",
"I 	c #CFD6D7",
"J 	c #D3DADB",
"K 	c #434545",
"L 	c #B8BEBF",
"M 	c #868A8B",
"N 	c #484A4B",
"O 	c #676A6B",
"P 	c #919696",
"Q 	c #D5DCDD",
"R 	c #ABB0B1",
"S 	c #2B2C2D",
"T 	c #292B2B",
"U 	c #4B4D4D",
"V 	c #323334",
"W 	c #2C2D2D",
"X 	c #2F3131",
"Y 	c #DAE1E2",
"Z 	c #52656A",
"` 	c #2D3131",
" .	c #B1B7B7",
"..	c #696C6D",
"+.	c #353737",
"@.	c #8E9293",
"#.	c #4F5252",
"$.	c #4C4F4F",
"%.	c #808485",
"&.	c #929797",
"*.	c #575A5A",
"=.	c #636666",
"-.	c #616465",
";.	c #232728",
">.	c #C1C7C8",
",.	c #A4A9AA",
"'.	c #ACB1B2",
").	c #AFB5B6",
"!.	c #ADB2B3",
"~.	c #BFC5C6",
"{.	c #939898",
"].	c #B5BBBC",
"^.	c #C9CFD0",
"/.	c #C5CBCC",
"(.	c #BCC2C3",
"_.	c #BABFC0",
":.	c #3B474B",
"<.	c #4D5151",
"[.	c #333D40",
"}.	c #333737",
"|.	c #8A8F90",
"1.	c #B0B6B6",
"2.	c #2F3739",
"3.	c #4D6064",
"4.	c #415155",
"5.	c #415054",
"6.	c #46575B",
"7.	c #52666B",
"8.	c #4A5C60",
"9.	c #45565A",
"0.	c #1C2223",
"a.	c #252B2D",
"b.	c #3E484A",
"c.	c #40494C",
"d.	c #333A3C",
"e.	c #181C1D",
"f.	c #303B3E",
"g.	c #3C4A4E",
"h.	c #181C1E",
"i.	c #48595E",
"j.	c #1A1E1F",
"k.	c #819397",
"l.	c #93A7AC",
"m.	c #92A6AB",
"n.	c #475154",
"o.	c #293335",
"p.	c #39464A",
"q.	c #2C3234",
"r.	c #8B9EA3",
"s.	c #212729",
"t.	c #7C8D91",
"u.	c #272E2F",
"v.	c #47585C",
"w.	c #181D1E",
"x.	c #8DA0A5",
"y.	c #1E2324",
"z.	c #5C686B",
"A.	c #334043",
"B.	c #343C3E",
"C.	c #6E7D81",
"D.	c #2E383A",
"E.	c #4B5558",
"F.	c #2D373A",
"G.	c #202526",
"H.	c #616E71",
"I.	c #323E41",
"J.	c #435357",
"K.	c #3A4244",
"L.	c #86989C",
"M.	c #333B3D",
"N.	c #425256",
"O.	c #191D1E",
"P.	c #8EA1A6",
"Q.	c #637174",
"R.	c #21282A",
"S.	c #313C3F",
"T.	c #424C4E",
"U.	c #3C4A4D",
"V.	c #1C2021",
"W.	c #434C4E",
"X.	c #5F6C6F",
"Y.	c #606D71",
"Z.	c #535F61",
"`.	c #2B3234",
" +	c #242B2D",
".+	c #4F6266",
"++	c #303B3D",
"@+	c #4C5659",
"#+	c #3E4D50",
"$+	c #333F42",
"%+	c #364347",
"&+	c #4C5E63",
"*+	c #3A484C",
"=+	c #506368",
"-+	c #405054",
";+	c #344043",
">+	c #4A5B60",
",+	c #3D4C4F",
"'+	c #1B2021",
")+	c #424B4E",
"!+	c #525E61",
"~+	c #2A3132",
"{+	c #1F2425",
"]+	c #626F73",
"^+	c #22292B",
"/+	c #323D40",
"(+	c #414B4D",
"_+	c #1E2425",
":+	c #87999E",
"<+	c #1E2325",
"[+	c #5C696C",
"}+	c #353D3F",
"|+	c #809196",
"1+	c #475153",
"2+	c #2B3233",
"3+	c #8A9DA2",
"4+	c #282F30",
"5+	c #2E3537",
"6+	c #333E41",
"7+	c #2A3335",
"8+	c #293234",
"9+	c #2D3739",
"0+	c #252B2C",
"a+	c #5D696D",
"b+	c #76868A",
"c+	c #77888C",
"d+	c #6C7A7E",
"e+	c #444E50",
"f+	c #495B5F",
"g+	c #232A2C",
"h+	c #333B3C",
"i+	c #667477",
"j+	c #3A484B",
"k+	c #343B3D",
"l+	c #1B2122",
"m+	c #586467",
"n+	c #3E4749",
"o+	c #3E4E51",
"p+	c #4F6367",
"q+	c #23282A",
"r+	c #657377",
"s+	c #303C3E",
"t+	c #262C2E",
"u+	c #6D7C7F",
"v+	c #3C4B4E",
"w+	c #495356",
"x+	c #1F2526",
"y+	c #566265",
"z+	c #374447",
"A+	c #485A5E",
"B+	c #30383A",
"C+	c #262D2F",
"D+	c #91A4A9",
"E+	c #4B5C61",
"F+	c #191E1F",
"G+	c #85979C",
"H+	c #707F83",
"I+	c #8C9FA4",
"J+	c #31383A",
"K+	c #1F2325",
"L+	c #7F9094",
"M+	c #4D5F64",
"N+	c #252D2F",
"O+	c #1A1F20",
"P+	c #3B494D",
"Q+	c #1E2426",
"R+	c #1D2223",
"S+	c #090C0C",
"T+	c #0B0E0E",
"U+	c #0A0D0E",
"V+	c #0E1212",
"            . + @ @ @ @ @ @ @ @ @ @ @ @ @ @ @ @ @ @ @ @ @ @ @ @ @ @ @ @ @ @ @ @ @ @ @ @ @ @ @ @ @ @ @ @ @ @ @ @ + .             ",
"        # $ % & & & & & & & & & & & & & & & & & & & & & & & & & & & & & & & & & & & & & & & & & & & & & & & & & & % $ #         ",
"    * = - & & & & & & & & & & & & & & & & & & & & & & & & & & & & & & & & & & & & & & & & & & & & & & & & & & & & & & - = *     ",
"    ; & & & & & > , , , , , , , , , , , , , , , , , , , , , , , , , , , , , , , , , , , , , , , , , , , , , , > & & & & & ;     ",
"  ' ) & & - ! ~ { ] ] ] ] ] ] ] ] ] ] ] ] ] ] ] ] ] ] ] ] ] ] ] ] ] ] ] ] ] ] ] ] ] ] ] ] ] ] ] ] ] ] ] ] ] ] { ~ ! - & & ) '   ",
"  ^ & & - / ( _ _ _ _ _ _ _ _ _ _ _ _ _ _ _ _ _ _ _ _ _ _ _ _ _ _ _ _ _ _ _ _ _ _ _ _ _ _ _ _ _ _ _ _ _ _ _ _ _ _ ( / - & & ^   ",
": < & & [ } _ _ _ _ _ _ _ _ _ _ _ _ _ _ _ _ _ _ _ _ _ _ _ _ _ _ _ _ _ _ _ _ _ _ _ _ _ _ _ _ _ _ _ _ _ _ _ _ _ _ _ _ } [ & & < : ",
"| & & & 1 _ _ _ _ _ _ _ _ _ _ _ _ _ _ _ _ _ _ _ _ _ _ _ _ _ _ _ 2 3 4 _ _ 4 5 6 7 _ 8 9 0 a _ _ _ b c _ d e e f _ _ _ 1 & & & | ",
"g & & h i _ _ _ _ _ _ _ _ _ _ _ _ _ _ _ _ _ _ _ _ _ _ _ _ _ _ _ j k l _ _ m n o 5 _ p q r s _ _ d t 6 _ u v w n _ _ _ i h & & g ",
"@ & & x y _ _ _ _ _ _ _ _ _ _ _ _ _ _ _ _ _ _ _ _ _ _ _ _ _ _ _ _ z l _ _ _ _ a A _ _ B C D _ E F G 6 _ u F H I _ _ _ y x & & @ ",
"@ & & x y _ _ _ _ _ _ _ _ _ _ _ _ _ _ _ _ _ _ _ _ _ _ _ _ _ _ _ _ z l _ _ _ J K L _ _ M N 3 _ O z P 6 _ p p o A _ _ _ y x & & @ ",
"@ & & x y _ _ _ _ _ _ _ _ _ _ _ _ _ _ _ _ _ _ _ _ _ _ _ _ _ _ _ _ z l _ _ Q N R _ _ _ _ _ S _ T U V W 2 _ _ _ X Y _ _ y x & & @ ",
"@ & & Z ` _ _ _ _ _ _ _ _ _ _ _ _ _ _ _ _ _ _ _ _ _ _ _ _ _ _ _  ...+.@._ #.$.k o _ %.&.e *._ _ _ P 6 _ @.C =.-._ _ _ ` Z & & @ ",
"@ & & & ;.J _ _ _ _ _ _ _ _ _ _ _ _ _ _ _ _ _ _ _ _ _ _ _ _ _ _ >.,.,.'._ ).,.,.!._ ~.{.]._ _ _ _ ^./._ (.o _._ _ _ J ;.& & & @ ",
"@ & & & :.<._ _ _ _ _ _ _ _ _ _ _ _ _ _ _ _ _ _ _ _ _ _ _ _ _ _ _ _ _ _ _ _ _ _ _ _ _ _ _ _ _ _ _ _ _ _ _ _ _ _ _ _ <.:.& & & @ ",
"@ & & & & [.}.|.1.z z z z z z z z z z z z z z z z z z z z z z z z z z z z z z z z z z z z z z z z z z z z z z 1.|.}.[.& & & & @ ",
"@ & & & & & < ^ 2.2.2.2.2.2.2.2.2.2.2.2.2.2.2.2.2.2.2.2.2.2.2.2.2.2.2.2.2.2.2.2.2.2.2.2.2.2.2.2.2.2.2.2.2.2.2.2.^ < & & & & & @ ",
"@ & & & & & & & & & & & & & & & & & & & & & & & & & & & & & & & & & & & & & & & & & & & & & & & & & & & & & & & & & & & & & & @ ",
"@ & & & & & & & & & & & & & & & & & & & & & & & & & & & & & & & & & & & & & & & & & & & & & & & & & & & & & & & & & & & & & & @ ",
"@ & & & & & & 3.4.5.5.5.5.5.5.5.6.7.& & & & & & & & & 8.4.5.5.5.5.5.5.4.8.& & & & & & & & & 7.6.5.5.5.5.5.5.5.4.3.& & & & & & @ ",
"@ & & & & 9.0.a.b.c.c.c.c.c.c.c.d.e.f.7.& & & & & g.h.! c.c.c.c.c.c.c.c.! h.g.& & & & & 7.f.e.d.c.c.c.c.c.c.c.b.a.0.9.& & & & @ ",
"@ & & & i.j.k.l.l.l.l.l.l.l.l.l.l.m.n.o.& & & & p.q.r.l.l.l.l.l.l.l.l.l.l.r.q.p.& & & & o.n.m.l.l.l.l.l.l.l.l.l.l.k.j.i.& & & @ ",
"@ & & & s.t.l.l.l.l.l.l.l.l.l.l.l.l.l.u.v.& & 7.w.x.l.l.l.l.l.l.l.l.l.l.l.l.x.w.7.& & v.u.l.l.l.l.l.l.l.l.l.l.l.l.l.t.s.& & & @ ",
"@ & & & y.l.l.l.l.l.l.l.l.l.l.l.l.l.l.z.A.& & 9.B.l.l.l.l.l.l.l.l.l.l.l.l.l.l.B.9.& & A.z.l.l.l.l.l.l.l.l.l.l.l.l.l.l.y.& & & @ ",
"@ & & - u.l.l.l.l.l.l.l.l.l.l.l.l.l.l.C.D.& & g.E.l.l.l.l.l.l.l.l.l.l.l.l.l.l.E.g.& & D.C.l.l.l.l.l.l.l.l.l.l.l.l.l.l.u.- & & @ ",
"@ & & x u.l.l.l.l.l.l.l.l.l.l.l.l.l.l.C.F.& & g.E.l.l.l.l.l.l.l.l.l.l.l.l.l.l.E.g.& & F.C.l.l.l.l.l.l.l.l.l.l.l.l.l.l.u.x & & @ ",
"@ & & & G.l.l.l.l.l.l.l.l.l.l.l.l.l.l.H.I.& & J.K.l.l.l.l.l.l.l.l.l.l.l.l.l.l.K.J.& & I.H.l.l.l.l.l.l.l.l.l.l.l.l.l.l.G.& & & @ ",
"@ & & & y.L.l.l.l.l.l.l.l.l.l.l.l.l.l.M.N.& & > O.m.l.l.l.l.l.l.l.l.l.l.l.l.m.O.> & & N.M.l.l.l.l.l.l.l.l.l.l.l.l.l.L.y.& & & @ ",
"@ & & & 5.a.P.l.l.l.l.l.l.l.l.l.l.l.Q.R.& & & & S.T.m.l.l.l.l.l.l.l.l.l.l.m.T.S.& & & & R.Q.l.l.l.l.l.l.l.l.l.l.l.P.a.5.& & & @ ",
"@ & & & & U.V.W.X.Y.Y.Y.Y.Y.Y.Y.Z.`. +.+& & & & & ++G.@+Y.Y.Y.Y.Y.Y.Y.Y.@+G.++& & & & & .+ +`.Z.Y.Y.Y.Y.Y.Y.Y.X.W.V.U.& & & & @ ",
"@ & & & & & h #+$+I.I.I.I.I.I.I.%+< & & & & & & & & &+*+$+I.I.I.I.I.I.$+*+&+& & & & & & & & < %+I.I.I.I.I.I.I.$+#+h & & & & & @ ",
"@ & & & & & & & & & & & & & & & & & & & & & & & & & & & & & & & & & & & & & & & & & & & & & & & & & & & & & & & & & & & & & & @ ",
"@ & & & & & & & & & & & & & & & & & & & & & & & & & & & & & & & & & & & & & & & & & & & & & & & & & & & & & & & & & & & & & & @ ",
"@ & & & & & =+-+;+I.I.I.I.I.I.I.p.>+& & & & & & & & ) ,+$+I.I.I.I.I.I.$+,+) & & & & & & & & >+p.I.I.I.I.I.I.I.;+-+=+& & & & & @ ",
"@ & & & & U.'+)+X.Y.Y.Y.Y.Y.Y.Y.!+~+ +.+& & & & & ++{+@+Y.Y.Y.Y.Y.Y.Y.Y.@+{+++& & & & & .+ +~+!+Y.Y.Y.Y.Y.Y.Y.X.)+'+U.& & & & @ ",
"@ & & & 4.u.x.l.l.l.l.l.l.l.l.l.l.l.]+^+& & & & /+(+m.l.l.l.l.l.l.l.l.l.l.m.(+/+& & & & ^+]+l.l.l.l.l.l.l.l.l.l.l.x.u.4.& & & @ ",
"@ & & & _+:+l.l.l.l.l.l.l.l.l.l.l.l.l.M.J.& & > j.m.l.l.l.l.l.l.l.l.l.l.l.l.m.j.> & & J.M.l.l.l.l.l.l.l.l.l.l.l.l.l.:+_+& & & @ ",
"@ & & & G.l.l.l.l.l.l.l.l.l.l.l.l.l.l.H.I.& & J.K.l.l.l.l.l.l.l.l.l.l.l.l.l.l.K.J.& & I.H.l.l.l.l.l.l.l.l.l.l.l.l.l.l.G.& & & @ ",
"@ & & x u.l.l.l.l.l.l.l.l.l.l.l.l.l.l.C.F.& & g.E.l.l.l.l.l.l.l.l.l.l.l.l.l.l.E.g.& & F.C.l.l.l.l.l.l.l.l.l.l.l.l.l.l.u.x & & @ ",
"@ & & - u.l.l.l.l.l.l.l.l.l.l.l.l.l.l.C.D.& & g.E.l.l.l.l.l.l.l.l.l.l.l.l.l.l.E.g.& & D.C.l.l.l.l.l.l.l.l.l.l.l.l.l.l.u.- & & @ ",
"@ & & & <+l.l.l.l.l.l.l.l.l.l.l.l.l.l.[+;+& & 9.}+l.l.l.l.l.l.l.l.l.l.l.l.l.l.}+9.& & ;+[+l.l.l.l.l.l.l.l.l.l.l.l.l.l.<+& & & @ ",
"@ & & & s.t.l.l.l.l.l.l.l.l.l.l.l.l.l.u.v.& & 7.w.x.l.l.l.l.l.l.l.l.l.l.l.l.x.w.7.& & v.u.l.l.l.l.l.l.l.l.l.l.l.l.l.t.s.& & & @ ",
"@ & & & i.j.|+l.l.l.l.l.l.l.l.l.l.m.1+o.& & & & p.2+3+l.l.l.l.l.l.l.l.l.l.3+2+p.& & & & o.1+m.l.l.l.l.l.l.l.l.l.l.|+j.i.& & & @ ",
"@ & & & & 9.0.4+b.c.c.c.c.c.c.c.}+j.f.7.& & & & & g.O.5+c.c.c.c.c.c.c.c.5+O.g.& & & & & 7.f.j.}+c.c.c.c.c.c.c.b.4+0.9.& & & & @ ",
"@ & & & & & & 3.4.5.5.5.5.5.5.5.6.7.& & & & & & & & & 8.4.5.5.5.5.5.5.4.8.& & & & & & & & & 7.6.5.5.5.5.5.5.5.4.3.& & & & & & @ ",
"@ & & & & & & & & & & & & & & & & & & & & & & & & & & & & & & & & & & & & & & & & & & & & & & & & & & & & & & & & & & & & & & @ ",
"@ & & & & & & & & & & & & & & & & & & & & & & & & & & & & & & & & & & & & & & & & & & & & & & & & & & & & & & & & & & & & & & @ ",
"@ & & & & & < 6+7+8+8+8+8+8+8+8+9+*+7.& & & & & & & 5.f.7+8+8+8+8+8+8+7+f.5.& & & & & & & 7.*+9+8+8+8+8+8+8+8+7+6+< & & & & & @ ",
"@ & & & & f.0+a+b+c+c+c+c+c+c+c+d+e+'+f+& & & & , g+h+i+c+c+c+c+c+c+c+c+i+h+g+, & & & & f+'+e+d+c+c+c+c+c+c+c+b+a+0+f.& & & & @ ",
"@ & & & j+k+l.l.l.l.l.l.l.l.l.l.l.l.b+l+7.& & & o.m+l.l.l.l.l.l.l.l.l.l.l.l.m+o.& & & 7.l+b+l.l.l.l.l.l.l.l.l.l.l.l.k+j+& & & @ ",
"@ & & & <+x.l.l.l.l.l.l.l.l.l.l.l.l.l.n+o+& & p+y.l.l.l.l.l.l.l.l.l.l.l.l.l.l.y.p+& & o+n+l.l.l.l.l.l.l.l.l.l.l.l.l.x.<+& & & @ ",
"@ & & Z q+l.l.l.l.l.l.l.l.l.l.l.l.l.l.r+s+& & -+c.l.l.l.l.l.l.l.l.l.l.l.l.l.l.c.-+& & s+r+l.l.l.l.l.l.l.l.l.l.l.l.l.l.q+Z & & @ ",
"@ & & x u.l.l.l.l.l.l.l.l.l.l.l.l.l.l.C.F.& & g.E.l.l.l.l.l.l.l.l.l.l.l.l.l.l.E.g.& & F.C.l.l.l.l.l.l.l.l.l.l.l.l.l.l.u.x & & @ ",
"@ & & h t+l.l.l.l.l.l.l.l.l.l.l.l.l.l.u+D.& & v+w+l.l.l.l.l.l.l.l.l.l.l.l.l.l.w+v+& & D.u+l.l.l.l.l.l.l.l.l.l.l.l.l.l.t+h & & @ ",
"@ & & & x+l.l.l.l.l.l.l.l.l.l.l.l.l.l.y+z+& & A+B+l.l.l.l.l.l.l.l.l.l.l.l.l.l.B+A+& & z+y+l.l.l.l.l.l.l.l.l.l.l.l.l.l.x+& & & @ ",
"g & & & C+d+l.l.l.l.l.l.l.l.l.l.l.l.D+y.E+& & & F+G+l.l.l.l.l.l.l.l.l.l.l.l.G+F+& & & E+y.D+l.l.l.l.l.l.l.l.l.l.l.l.d+C+& & & g ",
"| & & & 3.h.H+l.l.l.l.l.l.l.l.l.l.I+J+$+& & & & 5.K+L+l.l.l.l.l.l.l.l.l.l.L+K+5.& & & & $+J+I+l.l.l.l.l.l.l.l.l.l.H+h.3.& & & | ",
": < & & & M+N+O+t+u.u.u.u.u.u.u.{+O+P+& & & & & & 9.Q+R+u.u.u.u.u.u.u.u.R+Q+9.& & & & & & P+O+{+u.u.u.u.u.u.u.t+O+N+M+& & & < : ",
"  ;+& & & & & & - x x x x x x x > & & & & & & & & & & 7.- x x x x x x - 7.& & & & & & & & & & > x x x x x x x - & & & & & & ;+  ",
"  ' ) & & & & & & & & & & & & & & & & & & & & & & & & & & & & & & & & & & & & & & & & & & & & & & & & & & & & & & & & & & ) '   ",
"    F+& & & & & & & & & & & & & & & & & & & & & & & & & & & & & & & & & & & & & & & & & & & & & & & & & & & & & & & & & & F+    ",
"    S+= - & & & & & & & & & & & & & & & & & & & & & & & & & & & & & & & & & & & & & & & & & & & & & & & & & & & & & & - = S+    ",
"        ' $ % & & & & & & & & & & & & & & & & & & & & & & & & & & & & & & & & & & & & & & & & & & & & & & & & & & % $ '         ",
"            T+U+V+@ @ @ @ @ @ @ @ @ @ @ @ @ @ @ @ @ @ @ @ @ @ @ @ @ @ @ @ @ @ @ @ @ @ @ @ @ @ @ @ @ @ @ @ @ @ V+U+T+            "};
