/* XPM */
static const char * joecalc64x64_xpm[] = {
"64 64 177 2",
"  	c None",
". 	c #101010",
"+ 	c #151515",
"@ 	c #161616",
"# 	c #515151",
"$ 	c #727272",
"% 	c #808080",
"& 	c #0F0F0F",
"* 	c #2D2D2D",
"= 	c #797979",
"- 	c #787878",
"; 	c #292929",
"> 	c #282828",
", 	c #777777",
"' 	c #3B3B3B",
") 	c #2B2B2B",
"! 	c #414141",
"~ 	c #434343",
"{ 	c #404040",
"] 	c #2A2A2A",
"^ 	c #505050",
"/ 	c #272727",
"( 	c #BBBBBB",
"_ 	c #FFFFFF",
": 	c #262626",
"< 	c #707070",
"[ 	c #BEBEBE",
"} 	c #B8B8B8",
"| 	c #3F3F3F",
"1 	c #313131",
"2 	c #D4D4D4",
"3 	c #8F8F8F",
"4 	c #B4B4B4",
"5 	c #6C6C6C",
"6 	c #979797",
"7 	c #F0F0F0",
"8 	c #BCBCBC",
"9 	c #6A6A6A",
"0 	c #878787",
"a 	c #E2E2E2",
"b 	c #A3A3A3",
"c 	c #CBCBCB",
"d 	c #C4C4C4",
"e 	c #7F7F7F",
"f 	c #B3B3B3",
"g 	c #2F2F2F",
"h 	c #7A7A7A",
"i 	c #969696",
"j 	c #696969",
"k 	c #E7E7E7",
"l 	c #A8A8A8",
"m 	c #6D6D6D",
"n 	c #DCDCDC",
"o 	c #EDEDED",
"p 	c #C2C2C2",
"q 	c #525252",
"r 	c #3C3C3C",
"s 	c #898989",
"t 	c #A0A0A0",
"u 	c #D7D7D7",
"v 	c #E8E8E8",
"w 	c #393939",
"x 	c #7D7D7D",
"y 	c #CECECE",
"z 	c #E1E1E1",
"A 	c #E0E0E0",
"B 	c #ABABAB",
"C 	c #656565",
"D 	c #F6F6F6",
"E 	c #5B5B5B",
"F 	c #A5A5A5",
"G 	c #A1A1A1",
"H 	c #F2F2F2",
"I 	c #7C7C7C",
"J 	c #4D4D4D",
"K 	c #9B9B9B",
"L 	c #535353",
"M 	c #909090",
"N 	c #D0D0D0",
"O 	c #A7A7A7",
"P 	c #F8F8F8",
"Q 	c #545454",
"R 	c #C7C7C7",
"S 	c #323232",
"T 	c #575757",
"U 	c #3A3A3A",
"V 	c #333333",
"W 	c #D5D5D5",
"X 	c #373737",
"Y 	c #7E7E7E",
"Z 	c #3E3E3E",
"` 	c #5A5A5A",
" .	c #949494",
"..	c #AAAAAA",
"+.	c #666666",
"@.	c #ACACAC",
"#.	c #343434",
"$.	c #F5F5F5",
"%.	c #BFBFBF",
"&.	c #C8C8C8",
"*.	c #CACACA",
"=.	c #DEDEDE",
"-.	c #EAEAEA",
";.	c #E5E5E5",
">.	c #DBDBDB",
",.	c #D9D9D9",
"'.	c #F1F1F1",
").	c #5D5D5D",
"!.	c #595959",
"~.	c #FDFDFD",
"{.	c #565656",
"].	c #CDCDCD",
"^.	c #CFCFCF",
"/.	c #CCCCCC",
"(.	c #6F6F6F",
"_.	c #444444",
":.	c #424242",
"<.	c #737373",
"[.	c #616161",
"}.	c #606060",
"|.	c #686868",
"1.	c #6E6E6E",
"2.	c #252525",
"3.	c #464646",
"4.	c #212121",
"5.	c #202020",
"6.	c #1F1F1F",
"7.	c #474747",
"8.	c #232323",
"9.	c #9C9C9C",
"0.	c #B2B2B2",
"a.	c #3D3D3D",
"b.	c #303030",
"c.	c #989898",
"d.	c #ADADAD",
"e.	c #383838",
"f.	c #717171",
"g.	c #4F4F4F",
"h.	c #868686",
"i.	c #5C5C5C",
"j.	c #8C8C8C",
"k.	c #757575",
"l.	c #4C4C4C",
"m.	c #676767",
"n.	c #484848",
"o.	c #B1B1B1",
"p.	c #9F9F9F",
"q.	c #747474",
"r.	c #4B4B4B",
"s.	c #4E4E4E",
"t.	c #222222",
"u.	c #363636",
"v.	c #626262",
"w.	c #636363",
"x.	c #585858",
"y.	c #5E5E5E",
"z.	c #5F5F5F",
"A.	c #454545",
"B.	c #4A4A4A",
"C.	c #2E2E2E",
"D.	c #2C2C2C",
"E.	c #A2A2A2",
"F.	c #767676",
"G.	c #7B7B7B",
"H.	c #6B6B6B",
"I.	c #353535",
"J.	c #9A9A9A",
"K.	c #A9A9A9",
"L.	c #646464",
"M.	c #919191",
"N.	c #858585",
"O.	c #242424",
"P.	c #8A8A8A",
"Q.	c #B0B0B0",
"R.	c #0E0E0E",
"S.	c #121212",
"T.	c #131313",
"            . . + @ @ @ @ @ @ @ @ @ @ @ @ @ @ @ @ @ @ @ @ @ @ @ @ @ @ @ @ @ @ @ @ @ @ @ @ @ @ @ @ @ @ @ @ @ @ + . .             ",
"        . # $ % % % % % % % % % % % % % % % % % % % % % % % % % % % % % % % % % % % % % % % % % % % % % % % % % % $ # .         ",
"    & * = % % % % % % % % % % % % % % % % % % % % % % % % % % % % % % % % % % % % % % % % % % % % % % % % % % % % % % - ; &     ",
"    > % % % % % = - - - - - - - - - - - - - - - - - - - - - - - - - - - - - - - - - - - - - - - - - - - - - - = % % % % % ;     ",
"  . , % % , ' ) ! ~ ~ ~ ~ ~ ~ ~ ~ ~ ~ ~ ~ ~ ~ ~ ~ ~ ~ ~ ~ ~ ~ ~ ~ ~ ~ ~ ~ ~ ~ ~ ~ ~ ~ ~ ~ ~ ~ ~ ~ ~ ~ ~ ~ ~ ~ { ] ' , % % - .   ",
"  ^ % % - / ( _ _ _ _ _ _ _ _ _ _ _ _ _ _ _ _ _ _ _ _ _ _ _ _ _ _ _ _ _ _ _ _ _ _ _ _ _ _ _ _ _ _ _ _ _ _ _ _ _ _ ( : - % % ^   ",
"& < % % { [ _ _ _ _ _ _ _ _ _ _ _ _ _ _ _ _ _ _ _ _ _ _ _ _ _ _ _ _ _ _ _ _ _ _ _ _ _ _ _ _ _ _ _ _ _ _ _ _ _ _ _ _ } | % % < & ",
"& % % % 1 _ _ _ _ _ _ _ _ _ _ _ _ _ _ _ _ _ _ _ _ _ _ _ _ _ _ _ 2 3 4 _ _ 4 5 6 7 _ 8 9 0 a _ _ _ b c _ d e e f _ _ _ g % % % & ",
"+ % % h ! _ _ _ _ _ _ _ _ _ _ _ _ _ _ _ _ _ _ _ _ _ _ _ _ _ _ _ d i j _ _ f k l m _ n o p q _ _ d r 6 _ s t u v _ _ _ w x % % + ",
"@ % % - ~ _ _ _ _ _ _ _ _ _ _ _ _ _ _ _ _ _ _ _ _ _ _ _ _ _ _ _ _ y j _ _ _ _ z q _ _ A B C _ D E F 6 _ s E G H _ _ _ ' I % % @ ",
"@ % % - ~ _ _ _ _ _ _ _ _ _ _ _ _ _ _ _ _ _ _ _ _ _ _ _ _ _ _ _ _ y j _ _ _ D J u _ _ K L M _ , N l 6 _ n n O L _ _ _ ' I % % @ ",
"@ % % - ~ _ _ _ _ _ _ _ _ _ _ _ _ _ _ _ _ _ _ _ _ _ _ _ _ _ _ _ _ y j _ _ P Q R _ _ _ _ _ S _ g T U V W _ _ _ X _ _ _ ' I % % @ ",
"@ % % Y w _ _ _ _ _ _ _ _ _ _ _ _ _ _ _ _ _ _ _ _ _ _ _ _ _ _ _ y h Z F _ E ` 6 l _  ...Y +._ _ _ l 6 _ F @.$ $ _ _ _ #.e % % @ ",
"@ % % % g $._ _ _ _ _ _ _ _ _ _ _ _ _ _ _ _ _ _ _ _ _ _ _ _ _ _ z %.%.&._ c %.%.*._ =.B 2 _ _ _ _ -.;._ >.l ,._ _ _ '.g % % % @ ",
"@ % % % ).!.~._ _ _ _ _ _ _ _ _ _ _ _ _ _ _ _ _ _ _ _ _ _ _ _ _ _ _ _ _ _ _ _ _ _ _ _ _ _ _ _ _ _ _ _ _ _ _ _ _ _ ~.{.).% % % @ ",
"@ % % % % J U t ].^.^.^.^.^.^.^.^.^.^.^.^.^.^.^.^.^.^.^.^.^.^.^.^.^.^.^.^.^.^.^.^.^.^.^.^.^.^.^.^.^.^.^.^.^.^./.t U J % % % % @ ",
"@ % % % % % (.q _.:.:.:.:.:.:.:.:.:.:.:.:.:.:.:.:.:.:.:.:.:.:.:.:.:.:.:.:.:.:.:.:.:.:.:.:.:.:.:.:.:.:.:.:.:.:._.q (.% % % % % @ ",
"@ % % % % % % % % % % % % % % % % % % % % % % % % % % % % % % % % % % % % % % % % % % % % % % % % % % % % % % % % % % % % % % @ ",
"@ % % % % % % % % % % % % % % % % % % % % % % % % % % % % % % % % % % % % % % % % % % % % % % % % % % % % % % % % % % % % % % @ ",
"@ % % % % % % <.[.}.}.}.}.}.}.}.|.x % % % % % % % % e 1.}.}.}.}.}.}.}.}.1.e % % % % % % % % x |.}.}.}.}.}.}.}.[.<.% % % % % % @ ",
"@ % % % % j 2.#.Q {.{.{.{.{.{.{.3.4.3.Y % % % % % ` 5.{ {.{.{.{.{.{.{.{.Z 6.` % % % % % Y 3.4.7.{.{.{.{.{.{.{.Q #.2.j % % % % @ ",
"@ % % % < 8.9.f f f f f f f f f f 0.E a.% % % % T w ..f f f f f f f f f f B w ` % % % % a.E 0.f f f f f f f f f f 9.8.< % % % @ ",
"@ % % % b.c.f f f f f f f f f f f f f #.m % % Y 4.d.f f f f f f f f f f f f d.4.Y % % m e.f f f f f f f f f f f f f  .b.% % % @ ",
"@ % % % > f f f f f f f f f f f f f f f.g.% % 9 ~ f f f f f f f f f f f f f f ~ 9 % % ^ $ f f f f f f f f f f f f f f : % % % @ ",
"@ % % - S f f f f f f f f f f f f f f h.~ % % i.i.f f f f f f f f f f f f f f i.i.% % { j.f f f f f f f f f f f f f f * I % % @ ",
"@ % % - S f f f f f f f f f f f f f f h.~ % % i.i.f f f f f f f f f f f f f f i.i.% % | j.f f f f f f f f f f f f f f * I % % @ ",
"@ % % e ; f f f f f f f f f f f f f f k.l.% % m.n.f f f f f f f f f f f f f f n.m.% % l.= f f f f f f f f f f f f f f / e % % @ ",
"@ % % % ] b f f f f f f f f f f f f f { m.% % x 4.o.f f f f f f f f f f f f o.4.x % % m.~ f f f f f f f f f f f f f p.] % % % @ ",
"@ % % % m.* l f f f f f f f f f f f q.1 % % % % r.s.o.f f f f f f f f f f o.s.J % % % % 1 k.f f f f f f f f f f f l ) m.% % % @ ",
"@ % % % % E t.# 1.< < < < < < < [.V u.= % % % % e n.2.!.< < < < < < < < !.2.n.% % % % % = u.V v.< < < < < < < 1.^ t.E % % % % @ ",
"@ % % % % % I w.# ^ ^ ^ ^ ^ ^ ^ x.f.% % % % % % % % - y.^ ^ ^ ^ ^ ^ ^ ^ y.- % % % % % % % % f.x.^ ^ ^ ^ ^ ^ ^ # w.I % % % % % @ ",
"@ % % % % % % % % % % % % % % % % % % % % % % % % % % % % % % % % % % % % % % % % % % % % % % % % % % % % % % % % % % % % % % @ ",
"@ % % % % % % % % % % % % % % % % % % % % % % % % % % % % % % % % % % % % % % % % % % % % % % % % % % % % % % % % % % % % % % @ ",
"@ % % % % % h z.J J J J J J J J Q 1.% % % % % % % % k.` J J J J J J J J ` k.% % % % % % % % 1.Q J J J J J J J J z.h % % % % % @ ",
"@ % % % % !.8.q q.k.k.k.k.k.k.k.C X S - % % % % e A.; y.k.k.k.k.k.k.k.k.i.> A.e % % % % - S X m.k.k.k.k.k.k.k.<.q 8.!.% % % % @ ",
"@ % % % C b.B f f f f f f f f f f f = b.% % % % B.q 0.f f f f f f f f f f 0.L l.% % % % b.h f f f f f f f f f f f B C.C % % % @ ",
"@ % % % D.E.f f f f f f f f f f f f f ! +.% % x t.o.f f f f f f f f f f f f o.t.x % % +.A.f f f f f f f f f f f f f p.] % % % @ ",
"@ % % e ) f f f f f f f f f f f f f f F.l.% % m.B.f f f f f f f f f f f f f f B.m.% % l.G.f f f f f f f f f f f f f f / e % % @ ",
"@ % % - S f f f f f f f f f f f f f f h.~ % % i.i.f f f f f f f f f f f f f f i.i.% % | j.f f f f f f f f f f f f f f * I % % @ ",
"@ % % - S f f f f f f f f f f f f f f h.~ % % i.i.f f f f f f f f f f f f f f i.i.% % { j.f f f f f f f f f f f f f f * I % % @ ",
"@ % % % ] f f f f f f f f f f f f f f < g.% % H.~ f f f f f f f f f f f f f f ~ H.% % ^ q.f f f f f f f f f f f f f f : % % % @ ",
"@ % % % S  .f f f f f f f f f f f f f b.m % % e 5.B f f f f f f f f f f f f B 5.e % % m I.f f f f f f f f f f f f f M b.% % % @ ",
"@ % % % f.8.J.f f f f f f f f f f 0.x.| % % % % !.u.K.f f f f f f f f f f ..u.E % % % % | !.0.f f f f f f f f f f J.t.f.% % % @ ",
"@ % % % % 9 / b.s.^ ^ ^ ^ ^ ^ ^ ! 5.n.e % % % % % E 4.U ^ ^ ^ ^ ^ ^ ^ ^ e.5.E % % % % % e n.5.! ^ ^ ^ ^ ^ ^ ^ J g / 9 % % % % @ ",
"@ % % % % % % , C L.L.L.L.L.L.L.5 e % % % % % % % % % $ L.L.L.L.L.L.L.L.$ % % % % % % % % % e 5 L.L.L.L.L.L.L.C , % % % % % % @ ",
"@ % % % % % % % % % % % % % % % % % % % % % % % % % % % % % % % % % % % % % % % % % % % % % % % % % % % % % % % % % % % % % % @ ",
"@ % % % % % % % % % % % % % % % % % % % % % % % % % % % % % % % % % % % % % % % % % % % % % % % % % % % % % % % % % % % % % % @ ",
"@ % % % % % 1.l.a.r r r r r r r ~ ` Y % % % % % % % L.n.r r r r r r r r n.L.% % % % % % % Y ` ~ r r r r r r r a.l.1.% % % % % @ ",
"@ % % % % 7.* F.M M.M.M.M.M.M.M.N.{.O.< % % % % G.V { Y M.M.M.M.M.M.M.M.Y { V I % % % % < O.T h.M.M.M.M.M.M.M.M k.* 7.% % % % @ ",
"@ % % % ` :.0.f f f f f f f f f f f M.: e % % % r 1.f f f f f f f f f f f f 1.a.% % % e / M.f f f f f f f f f f f 0.| ` % % % @ ",
"@ % % % / d.f f f f f f f f f f f f f g.}.% % h / f f f f f f f f f f f f f f / h % % }.q f f f f f f f f f f f f f ../ % % % @ ",
"@ % % Y ) f f f f f f f f f f f f f f I n.% % w.g.f f f f f f f f f f f f f f g.w.% % n.e f f f f f f f f f f f f f f > e % % @ ",
"@ % % - S f f f f f f f f f f f f f f h.~ % % i.i.f f f f f f f f f f f f f f i.i.% % | j.f f f f f f f f f f f f f f * I % % @ ",
"@ % % h 1 f f f f f f f f f f f f f f N._.% % ).E f f f f f f f f f f f f f f E ).% % ! P.f f f f f f f f f f f f f f D.x % % @ ",
"@ % % % / f f f f f f f f f f f f f f 9 L % % (.' f f f f f f f f f f f f f f ' (.% % Q H.f f f f f f f f f f f f f f : % % % @ ",
"+ % % % e.N.f f f f f f f f f f f f Q./ <.% % % t.E.f f f f f f f f f f f f E.t.% % % <.) o.f f f f f f f f f f f f % e.% % % + ",
"& % % % - 4.N.f f f f f f f f f f B a.s.% % % % L.; J.f f f f f f f f f f K ; +.% % % % s.Z B f f f f f f f f f f N.4.- % % % & ",
". 1.% % % , u.8.1 S S S S S S S > 8.).% % % % % % 5 ) : S S S S S S S S 2.] 5 % % % % % % ).8.; S S S S S S S b.t.u., % % % 1.. ",
"  g.% % % % % % = - - - - - - - x % % % % % % % % % % e - - - - - - - - e % % % % % % % % % % x - - - - - - - = % % % % % % g.  ",
"  . , % % % % % % % % % % % % % % % % % % % % % % % % % % % % % % % % % % % % % % % % % % % % % % % % % % % % % % % % % % , .   ",
"    2.% % % % % % % % % % % % % % % % % % % % % % % % % % % % % % % % % % % % % % % % % % % % % % % % % % % % % % % % % % :     ",
"    R.] - % % % % % % % % % % % % % % % % % % % % % % % % % % % % % % % % % % % % % % % % % % % % % % % % % % % % % % , / R.    ",
"        . ^ < % % % % % % % % % % % % % % % % % % % % % % % % % % % % % % % % % % % % % % % % % % % % % % % % % % m g..         ",
"            S.T.@ @ @ @ @ @ @ @ @ @ @ @ @ @ @ @ @ @ @ @ @ @ @ @ @ @ @ @ @ @ @ @ @ @ @ @ @ @ @ @ @ @ @ @ @ @ @ @ S.S.            "};
