/* XPM */
static const char * joecalc64x64_xpm[] = {
"64 64 136 2",
"  	c None",
". 	c #2B2B2B",
"+ 	c #313131",
"@ 	c #363636",
"# 	c #2D2D2D",
"$ 	c #2F2F2F",
"% 	c #989898",
"& 	c #B3B3B3",
"* 	c #2E2E2E",
"= 	c #939393",
"- 	c #5E5E5E",
"; 	c #565656",
"> 	c #949494",
", 	c #343434",
"' 	c #3D3D3D",
") 	c #7F7F7F",
"! 	c #888888",
"~ 	c #7E7E7E",
"{ 	c #999999",
"] 	c #555555",
"^ 	c #868686",
"/ 	c #878787",
"( 	c #696969",
"_ 	c #7B7B7B",
": 	c #585858",
"< 	c #5A5A5A",
"[ 	c #7C7C7C",
"} 	c #828282",
"| 	c #5F5F5F",
"1 	c #636363",
"2 	c #595959",
"3 	c #393939",
"4 	c #464646",
"5 	c #616161",
"6 	c #4A4A4A",
"7 	c #383838",
"8 	c #646464",
"9 	c #606060",
"0 	c #525252",
"a 	c #323232",
"b 	c #282828",
"c 	c #686868",
"d 	c #5B5B5B",
"e 	c #353535",
"f 	c #838383",
"g 	c #959595",
"h 	c #373737",
"i 	c #272727",
"j 	c #6C6C6C",
"k 	c #919191",
"l 	c #656565",
"m 	c #6D6D6D",
"n 	c #787878",
"o 	c #575757",
"p 	c #3A3A3A",
"q 	c #3F3F3F",
"r 	c #4E4E4E",
"s 	c #515151",
"t 	c #898989",
"u 	c #494949",
"v 	c #777777",
"w 	c #7D7D7D",
"x 	c #6B6B6B",
"y 	c #212121",
"z 	c #4D4D4D",
"A 	c #2A2A2A",
"B 	c #454545",
"C 	c #444444",
"D 	c #8E8E8E",
"E 	c #484848",
"F 	c #4C4C4C",
"G 	c #717171",
"H 	c #797979",
"I 	c #7A7A7A",
"J 	c #969696",
"K 	c #979797",
"L 	c #929292",
"M 	c #8C8C8C",
"N 	c #767676",
"O 	c #757575",
"P 	c #A4A4A4",
"Q 	c #626262",
"R 	c #666666",
"S 	c #AAAAAA",
"T 	c #818181",
"U 	c #707070",
"V 	c #AEAEAE",
"W 	c #808080",
"X 	c #474747",
"Y 	c #A9A9A9",
"Z 	c #B4B4B4",
"` 	c #8A8A8A",
" .	c #4B4B4B",
"..	c #6F6F6F",
"+.	c #676767",
"@.	c #B0B0B0",
"#.	c #A7A7A7",
"$.	c #CCCCCC",
"%.	c #434343",
"&.	c #CBCBCB",
"*.	c #CACACA",
"=.	c #B2B2B2",
"-.	c #5D5D5D",
";.	c #9E9E9E",
">.	c #5C5C5C",
",.	c #A1A1A1",
"'.	c #C8C8C8",
").	c #9C9C9C",
"!.	c #404040",
"~.	c #9D9D9D",
"{.	c #737373",
"].	c #A0A0A0",
"^.	c #6A6A6A",
"/.	c #9F9F9F",
"(.	c #909090",
"_.	c #9B9B9B",
":.	c #414141",
"<.	c #545454",
"[.	c #A2A2A2",
"}.	c #C9C9C9",
"|.	c #A8A8A8",
"1.	c #AFAFAF",
"2.	c #8F8F8F",
"3.	c #3E3E3E",
"4.	c #A3A3A3",
"5.	c #ACACAC",
"6.	c #C4C4C4",
"7.	c #ABABAB",
"8.	c #A5A5A5",
"9.	c #8D8D8D",
"0.	c #535353",
"a.	c #BDBDBD",
"b.	c #C5C5C5",
"c.	c #BCBCBC",
"d.	c #303030",
"e.	c #2C2C2C",
"                                                                                                                                ",
"                                                                                                                                ",
"        . + @ @ @ @ @ @ @ @ @ @ @ @ @ @ @ @ @ @ @ @ @ @ @ @ @ @ @ @ @ @ @ @ @ @ @ @ @ @ @ @ @ @ @ @ @ @ @ @ @ @ @ @ + #         ",
"      $ % & & & & & & & & & & & & & & & & & & & & & & & & & & & & & & & & & & & & & & & & & & & & & & & & & & & & & & % *       ",
"    # % & & & & & & & & & & & & & & & & & & & & & & & & & & & & & & & & & & & & & & & & & & & & & & & & & & & & & & & & % #     ",
"    + & & & = - ; ; ; ; ; ; ; ; ; ; ; ; ; ; ; ; ; ; ; ; ; ; ; ; ; ; ; ; ; ; ; ; ; ; ; ; ; ; ; ; ; ; ; ; ; ; ; ; - > & & & +     ",
"    , & & > ' ) ! ! ! ! ! ! ! ! ! ! ! ! ! ! ! ! ! ! ! ! ! ! ! ! ! ! ! ! ! ! ! ! ! ! ! ! ! ! ! ! ! ! ! ! ! ! ! ! ) ' > & & ,     ",
"    , & & - ~ { { { { { { { { { { { { { { { { { { { { { { { { { { { { { { { { { { { { { { { { { { { { { { { { { { ~ - & & ,     ",
"    , & & ] ^ { { { { { { { { { { { { { { { { { { { { { { { { / ( { { _ : < ! { [ < : } { { { / | { { 1 - - [ { { / ] & & ,     ",
"    , & & ] ^ { { { { { { { { { { { { { { { { { { { { { { % 2 . 3 { % 4 5 6 7 { 8 9 0 * % { ! a b { { . < - [ { { / ] & & ,     ",
"    , & & ] ^ { { { { { { { { { { { { { { { { { { { { { { { c d 3 { { { { 8 e { { f d , % g h | i { g b j k { { { / ] & & ,     ",
"    , & & ] ^ { { { { { { { { { { { { { { { { { { { { { { { { l 3 { { { m * n { { o p q = r s t i { = 0 u # v { { / ] & & ,     ",
"    , & & ] ^ { { { { { { { { { { { { { { { { { { { { { { { { l 3 { { j $ w { { { { % + x 3 e , y 6 { { { z r { { / ] & & ,     ",
"    , & & ] ^ { { { { { { { { { { { { { { { { { { { { { { { 2 p A B { @ @ B C f u r 4 + D { { t i { l E F # G { { / ] & & ,     ",
"    , & & ] ^ { { { { { { { { { { { { { { { { { { { { { { { f H H I { w H H H = t x G J { { { K [ { L G x M { { { / ] & & ,     ",
"    , & & l N { { { { { { { { { { { { { { { { { { { { { { { { { { { { { { { { { { { { { { { { { { { { { { { { { { O 8 & & ,     ",
"    , & & P 3 Q R R R R R R R R R R R R R R R R R R R R R R R R R R R R R R R R R R R R R R R R R R R R R R R R Q 3 P & & ,     ",
"    , & & & S T O O O O O O O O O O O O O O O O O O O O O O O O O O O O O O O O O O O O O O O O O O O O O O O O T S & & & ,     ",
"    , & & & & & & & & & & & & & & & & & & & & & & & & & & & & & & & & & & & & & & & & & & & & & & & & & & & & & & & & & & ,     ",
"    , & & & & & & & & & & & & & & & & & & & & & & & & & & & & & & & & & & & & & & & & & & & & & & & & & & & & & & & & & & ,     ",
"    , & & & > 9 < < < < < < < < < < < U V & & & & W d < < < < < < < < < < d W & & & & V G < < < < < < < < < < < 9 = & & & ,     ",
"    , & & > X Y Z Z Z Z Z Z Z Z Z Z Z `  .& & & ..+.@.Z Z Z Z Z Z Z Z Z Z @.+...& & & 6 ` Z Z Z Z Z Z Z Z Z Z Z Y X = & & ,     ",
"    , & & 5 #.$.$.$.$.$.$.$.$.$.$.$.$.$.0 #.& & %.&.$.$.$.$.$.$.$.$.$.$.$.$.*.%.& & #.0 $.$.$.$.$.$.$.$.$.$.$.$.$.#.5 & & ,     ",
"    , & & < =.$.$.$.$.$.$.$.$.$.$.$.$.$.-.;.& & %.$.$.$.$.$.$.$.$.$.$.$.$.$.$.%.& & ;.>.$.$.$.$.$.$.$.$.$.$.$.$.$.=.2 & & ,     ",
"    , & & < =.$.$.$.$.$.$.$.$.$.$.$.$.$.-.;.& & %.$.$.$.$.$.$.$.$.$.$.$.$.$.$.%.& & ;.>.$.$.$.$.$.$.$.$.$.$.$.$.$.=.2 & & ,     ",
"    , & & < =.$.$.$.$.$.$.$.$.$.$.$.$.$.-.;.& & %.$.$.$.$.$.$.$.$.$.$.$.$.$.$.%.& & ;.>.$.$.$.$.$.$.$.$.$.$.$.$.$.=.2 & & ,     ",
"    , & & < =.$.$.$.$.$.$.$.$.$.$.$.$.$.-.;.& & %.$.$.$.$.$.$.$.$.$.$.$.$.$.$.%.& & ;.>.$.$.$.$.$.$.$.$.$.$.$.$.$.=.2 & & ,     ",
"    , & & < =.$.$.$.$.$.$.$.$.$.$.$.$.$.-.;.& & %.$.$.$.$.$.$.$.$.$.$.$.$.$.$.%.& & ;.>.$.$.$.$.$.$.$.$.$.$.$.$.$.=.2 & & ,     ",
"    , & & 8 ,.$.$.$.$.$.$.$.$.$.$.$.$.$.F S & & C '.$.$.$.$.$.$.$.$.$.$.$.$.'.C & & S F $.$.$.$.$.$.$.$.$.$.$.$.$.,.8 & & ,     ",
"    , & & ).!.= ~.~.~.~.~.~.~.~.~.~.~.{.; & & & _ ] { ~.~.~.~.~.~.~.~.~.~.{ ] _ & & & ; {.~.~.~.~.~.~.~.~.~.~.~.= !.).& & ,     ",
"    , & & & ].G 1 1 1 1 1 1 1 1 1 1 l T =.& & & & L ^.1 1 1 1 1 1 1 1 1 1 ^.L & & & & =.T l 1 1 1 1 1 1 1 1 1 1 G ].& & & ,     ",
"    , & & & & & & & & & & & & & & & & & & & & & & & & & & & & & & & & & & & & & & & & & & & & & & & & & & & & & & & & & & ,     ",
"    , & & & & & & & & & & & & & & & & & & & & & & & & & & & & & & & & & & & & & & & & & & & & & & & & & & & & & & & & & & ,     ",
"    , & & & /...1 1 1 1 1 1 1 1 1 1 l W =.& & & & (.( 1 1 1 1 1 1 1 1 1 1 ( (.& & & & =.W l 1 1 1 1 1 1 1 1 1 1 ..].& & & ,     ",
"    , & & _.:.> ~.~.~.~.~.~.~.~.~.~.~.N <.& & & I ; { ~.~.~.~.~.~.~.~.~.~.{ ; _ & & & <.N ~.~.~.~.~.~.~.~.~.~.~.> :.).& & ,     ",
"    , & & l [.$.$.$.$.$.$.$.$.$.$.$.$.$.F S & & C }.$.$.$.$.$.$.$.$.$.$.$.$.}.%.& & S z $.$.$.$.$.$.$.$.$.$.$.$.$.[.8 & & ,     ",
"    , & & < =.$.$.$.$.$.$.$.$.$.$.$.$.$.-.;.& & %.$.$.$.$.$.$.$.$.$.$.$.$.$.$.%.& & ;.>.$.$.$.$.$.$.$.$.$.$.$.$.$.=.2 & & ,     ",
"    , & & < =.$.$.$.$.$.$.$.$.$.$.$.$.$.-.;.& & %.$.$.$.$.$.$.$.$.$.$.$.$.$.$.%.& & ;.>.$.$.$.$.$.$.$.$.$.$.$.$.$.=.2 & & ,     ",
"    , & & < =.$.$.$.$.$.$.$.$.$.$.$.$.$.-.;.& & %.$.$.$.$.$.$.$.$.$.$.$.$.$.$.%.& & ;.>.$.$.$.$.$.$.$.$.$.$.$.$.$.=.2 & & ,     ",
"    , & & < =.$.$.$.$.$.$.$.$.$.$.$.$.$.-.;.& & %.$.$.$.$.$.$.$.$.$.$.$.$.$.$.%.& & ;.>.$.$.$.$.$.$.$.$.$.$.$.$.$.=.2 & & ,     ",
"    , & & < =.$.$.$.$.$.$.$.$.$.$.$.$.$.-.;.& & %.$.$.$.$.$.$.$.$.$.$.$.$.$.$.%.& & ;.>.$.$.$.$.$.$.$.$.$.$.$.$.$.=.2 & & ,     ",
"    , & & 5 #.$.$.$.$.$.$.$.$.$.$.$.$.$.s #.& & %.*.$.$.$.$.$.$.$.$.$.$.$.$.*.%.& & #.s $.$.$.$.$.$.$.$.$.$.$.$.$.#.5 & & ,     ",
"    , & & > 4 |.Z Z Z Z Z Z Z Z Z Z & ! F & & & U R 1.Z Z Z Z Z Z Z Z Z Z 1.R G & & &  .t & Z Z Z Z Z Z Z Z Z Z |.4 g & & ,     ",
"    , & & & = 5 < < < < < < < < < < < G V & & & & } -.< < < < < < < < < < -.} & & & & V G < < < < < < < < < < < 5 > & & & ,     ",
"    , & & & & & & & & & & & & & & & & & & & & & & & & & & & & & & & & & & & & & & & & & & & & & & & & & & & & & & & & & & ,     ",
"    , & & & & & & & & & & & & & & & & & & & & & & & & & & & & & & & & & & & & & & & & & & & & & & & & & & & & & & & & & & ,     ",
"    , & & & Y W O O O O O O O O O O v k & & & & & ;.I O O O O O O O O O O I ;.& & & & & k v O O O O O O O O O O W Y & & & ,     ",
"    , & & [.q T k k k k k k k k k k 2.| Q & & & ^ 6 ` k k k k k k k k k k ` 6 ^ & & & Q 9 2.k k k k k k k k k k W 3.4.& & ,     ",
"    , & & +.).$.$.$.$.$.$.$.$.$.$.$.$.$.E 5.& & B 6.$.$.$.$.$.$.$.$.$.$.$.$.6.B & & 5.E $.$.$.$.$.$.$.$.$.$.$.$.$._.+.& & ,     ",
"    , & & < =.$.$.$.$.$.$.$.$.$.$.$.$.$.-.;.& & %.$.$.$.$.$.$.$.$.$.$.$.$.$.$.%.& & ;.>.$.$.$.$.$.$.$.$.$.$.$.$.$.=.2 & & ,     ",
"    , & & < =.$.$.$.$.$.$.$.$.$.$.$.$.$.-.;.& & %.$.$.$.$.$.$.$.$.$.$.$.$.$.$.%.& & ;.>.$.$.$.$.$.$.$.$.$.$.$.$.$.=.2 & & ,     ",
"    , & & < =.$.$.$.$.$.$.$.$.$.$.$.$.$.-.;.& & %.$.$.$.$.$.$.$.$.$.$.$.$.$.$.%.& & ;.>.$.$.$.$.$.$.$.$.$.$.$.$.$.=.2 & & ,     ",
"    , & & < =.$.$.$.$.$.$.$.$.$.$.$.$.$.-.;.& & %.$.$.$.$.$.$.$.$.$.$.$.$.$.$.%.& & ;.>.$.$.$.$.$.$.$.$.$.$.$.$.$.=.2 & & ,     ",
"    , & & < =.$.$.$.$.$.$.$.$.$.$.$.$.$.-.;.& & %.$.$.$.$.$.$.$.$.$.$.$.$.$.$.%.& & ;.>.$.$.$.$.$.$.$.$.$.$.$.$.$.=.2 & & ,     ",
"    , & & 9 7.$.$.$.$.$.$.$.$.$.$.$.$.$.<.P & & %.$.$.$.$.$.$.$.$.$.$.$.$.$.$.%.& & 8.<.$.$.$.$.$.$.$.$.$.$.$.$.$.7.| & & ,     ",
"    , & & 9.0.a.$.$.$.$.$.$.$.$.$.$.*.~.C & & & l I b.$.$.$.$.$.$.$.$.$.$.b.H l & & & C ~.*.$.$.$.$.$.$.$.$.$.$.c.0 9.& & ,     ",
"    , & & & ^ r B B B B B B B B B B 4 9 #.& & & @.G u B B B B B B B B B B u G @.& & & #.9 4 B B B B B B B B B B r / & & & ,     ",
"    , & & & & & & & & & & & & & & & & & & & & & & & & & & & & & & & & & & & & & & & & & & & & & & & & & & & & & & & & & & ,     ",
"    + & & & & & & & & & & & & & & & & & & & & & & & & & & & & & & & & & & & & & & & & & & & & & & & & & & & & & & & & & & d.    ",
"    # K & & & & & & & & & & & & & & & & & & & & & & & & & & & & & & & & & & & & & & & & & & & & & & & & & & & & & & & & J #     ",
"      * K & & & & & & & & & & & & & & & & & & & & & & & & & & & & & & & & & & & & & & & & & & & & & & & & & & & & & & J *       ",
"        e.d.@ @ @ @ @ @ @ @ @ @ @ @ @ @ @ @ @ @ @ @ @ @ @ @ @ @ @ @ @ @ @ @ @ @ @ @ @ @ @ @ @ @ @ @ @ @ @ @ @ @ @ @ d.#         ",
"                                                                                                                                ",
"                                                                                                                                "};
